<svg width="215" height="45" viewBox="0 0 215 45" fill="none" xmlns="http://www.w3.org/2000/svg">
<path d="M80.9825 8.11664L71.0965 36.3612H62.6002L52.7143 8.11664H59.9401L66.8484 29.4409L73.7963 8.11664H80.9825Z" fill="#2F80ED"/>
<path d="M91.0061 13.6288V19.3421H100.098V24.653H91.0061V30.8491H101.289V36.3612H84.217V8.11664H101.289V13.6288H91.0061Z" fill="#2F80ED"/>
<path d="M104.942 22.1987C104.942 19.4091 105.538 16.928 106.729 14.7553C107.92 12.5558 109.574 10.8526 111.692 9.64555C113.836 8.41169 116.258 7.79476 118.957 7.79476C122.266 7.79476 125.098 8.67992 127.454 10.4502C129.809 12.2206 131.384 14.6346 132.178 17.6924H124.714C124.158 16.5122 123.364 15.6137 122.332 14.9967C121.326 14.3798 120.175 14.0713 118.878 14.0713C116.787 14.0713 115.093 14.809 113.796 16.2842C112.499 17.7595 111.851 19.731 111.851 22.1987C111.851 24.6664 112.499 26.6379 113.796 28.1132C115.093 29.5884 116.787 30.3261 118.878 30.3261C120.175 30.3261 121.326 30.0176 122.332 29.4007C123.364 28.7837 124.158 27.8852 124.714 26.705H132.178C131.384 29.7628 129.809 32.1768 127.454 33.9472C125.098 35.6907 122.266 36.5624 118.957 36.5624C116.258 36.5624 113.836 35.9589 111.692 34.7519C109.574 33.518 107.92 31.8147 106.729 29.6421C105.538 27.4694 104.942 24.9883 104.942 22.1987Z" fill="#2F80ED"/>
<path d="M156.783 8.11664V13.6288H149.398V36.3612H142.609V13.6288H135.224V8.11664H156.783Z" fill="#2F80ED"/>
<path d="M173.768 36.6429C171.148 36.6429 168.739 36.0259 166.542 34.7921C164.372 33.5582 162.638 31.8416 161.341 29.6421C160.071 27.4158 159.436 24.9212 159.436 22.1585C159.436 19.3957 160.071 16.9146 161.341 14.7151C162.638 12.5156 164.372 10.7989 166.542 9.56508C168.739 8.33122 171.148 7.71429 173.768 7.71429C176.388 7.71429 178.784 8.33122 180.954 9.56508C183.151 10.7989 184.872 12.5156 186.116 14.7151C187.386 16.9146 188.021 19.3957 188.021 22.1585C188.021 24.9212 187.386 27.4158 186.116 29.6421C184.845 31.8416 183.125 33.5582 180.954 34.7921C178.784 36.0259 176.388 36.6429 173.768 36.6429ZM173.768 30.3663C175.991 30.3663 177.765 29.6152 179.088 28.1132C180.438 26.6111 181.113 24.6262 181.113 22.1585C181.113 19.6639 180.438 17.679 179.088 16.2038C177.765 14.7017 175.991 13.9506 173.768 13.9506C171.518 13.9506 169.718 14.6883 168.369 16.1635C167.045 17.6388 166.383 19.6371 166.383 22.1585C166.383 24.653 167.045 26.6513 168.369 28.1534C169.718 29.6287 171.518 30.3663 173.768 30.3663Z" fill="#2F80ED"/>
<path d="M206.409 36.3612L200.612 25.6991H198.984V36.3612H192.195V8.11664H203.59C205.787 8.11664 207.653 8.50557 209.188 9.28344C210.75 10.0613 211.914 11.1342 212.682 12.5022C213.449 13.8433 213.833 15.3454 213.833 17.0085C213.833 18.8861 213.304 20.5625 212.245 22.0378C211.213 23.513 209.678 24.5591 207.64 25.176L214.071 36.3612H206.409ZM198.984 20.8307H203.193C204.437 20.8307 205.363 20.5223 205.972 19.9053C206.607 19.2884 206.925 18.4167 206.925 17.2901C206.925 16.2172 206.607 15.3723 205.972 14.7553C205.363 14.1384 204.437 13.8299 203.193 13.8299H198.984V20.8307Z" fill="#2F80ED"/>
<path fill-rule="evenodd" clip-rule="evenodd" d="M45 22.5L22.5 0L0 22.5L22.5 45L45 22.5ZM35.3503 22.5L22.5 9.6497L9.6497 22.5L22.5 35.3503L35.3503 22.5Z" fill="url(#paint0_linear_1_58)"/>
<path d="M22.2794 15.4286L29.5525 22.7017L22.2794 29.9748L15.0063 22.7017L22.2794 15.4286Z" fill="url(#paint1_linear_1_58)"/>
<defs>
<linearGradient id="paint0_linear_1_58" x1="7.39286" y1="7.07143" x2="38.8929" y2="38.5714" gradientUnits="userSpaceOnUse">
<stop stop-color="#2F80ED"/>
<stop offset="1" stop-color="#3DBAE1"/>
</linearGradient>
<linearGradient id="paint1_linear_1_58" x1="7.39286" y1="7.07143" x2="38.8929" y2="38.5714" gradientUnits="userSpaceOnUse">
<stop stop-color="#2F80ED"/>
<stop offset="1" stop-color="#3DBAE1"/>
</linearGradient>
</defs>
</svg>
